<svg version="1.1" xmlns="http://www.w3.org/2000/svg" viewBox="-9474.396533203126 -980.7 14573.9418907801 2557.019998168945"><desc>Created with Snap</desc><defs></defs><g><rect x="-9474.396533203126" y="-980.7" width="14573.9418907801" height="2557.019998168945" fill="#143d59" style=""></rect><g transform="matrix(25.5685,0,0,25.5685,2529.8058,-993.4262)"><g><path d="M74.265,60.41c0.964,2.929,1.401,5.966,1.261,9.015c2.584-0.989,5.013-2.49,7.095-4.572c0.244-0.244,0.41-0.527,0.637-0.78   c0.018-0.341,0.105-0.659,0.105-1.004c0-2.924-0.646-5.691-1.764-8.203C79.522,57.139,77.045,59.022,74.265,60.41z" fill="#f4b41a" style=""></path><path d="M54.863,81.605c2.509,1.112,5.276,1.759,8.2,1.759c0.349,0,0.664-0.085,1.004-0.103c0.253-0.227,0.541-0.393,0.781-0.637   c2.08-2.085,3.585-4.516,4.572-7.104c-3.049,0.14-6.086-0.292-9.01-1.257C59.022,77.049,57.137,79.528,54.863,81.605z" fill="#f4b41a" style=""></path><path d="M40.588,74.265c-2.925,0.965-5.965,1.396-9.013,1.257c0.988,2.588,2.49,5.023,4.573,7.104   c0.242,0.244,0.528,0.41,0.779,0.637c0.339,0.018,0.661,0.103,1.003,0.103c2.926,0,5.691-0.646,8.202-1.759   C43.861,79.528,41.976,77.049,40.588,74.265z" fill="#f4b41a" style=""></path><path d="M26.731,60.41c-2.781-1.388-5.26-3.271-7.337-5.545c-1.112,2.512-1.758,5.279-1.758,8.203c0,0.345,0.085,0.663,0.1,1.004   c0.229,0.253,0.395,0.536,0.639,0.78c2.082,2.082,4.515,3.583,7.098,4.572C25.333,66.376,25.767,63.339,26.731,60.41z" fill="#f4b41a" style=""></path><path d="M26.731,40.592c-0.964-2.929-1.398-5.966-1.259-9.016c-2.583,0.989-5.014,2.491-7.098,4.572   c-0.244,0.245-0.41,0.528-0.639,0.781c-0.015,0.341-0.1,0.659-0.1,1.004c0,2.924,0.646,5.69,1.76,8.205   C21.471,43.863,23.95,41.979,26.731,40.592z" fill="#f4b41a" style=""></path><path d="M46.132,19.397c-2.511-1.114-5.275-1.76-8.202-1.76c-0.342,0-0.664,0.084-1.003,0.102   c-0.251,0.228-0.537,0.393-0.779,0.638c-2.083,2.08-3.585,4.515-4.573,7.103c3.048-0.14,6.088,0.293,9.013,1.257   C41.976,23.952,43.861,21.475,46.132,19.397z" fill="#f4b41a" style=""></path><path d="M60.41,26.736c2.924-0.964,5.961-1.396,9.01-1.257c-0.99-2.588-2.492-5.017-4.572-7.103   c-0.24-0.245-0.528-0.41-0.781-0.638c-0.34-0.018-0.659-0.102-1.004-0.102c-2.924,0-5.691,0.646-8.2,1.76   C57.137,21.475,59.022,23.952,60.41,26.736z" fill="#f4b41a" style=""></path><path d="M82.621,36.148c-2.082-2.081-4.511-3.583-7.095-4.572c0.14,3.05-0.297,6.087-1.261,9.016   c2.78,1.388,5.257,3.271,7.334,5.547c1.117-2.515,1.764-5.281,1.764-8.205c0-0.345-0.088-0.663-0.105-1.004   C83.031,36.677,82.865,36.394,82.621,36.148z" fill="#f4b41a" style=""></path><path d="M58.228,63.068c0-0.166-0.048-0.319-0.052-0.484c-1.061-0.21-2.09-0.498-3.099-0.834c-0.462,0.921-0.89,1.851-1.469,2.719   c0.113,0.122,0.19,0.267,0.309,0.384c1.143,1.14,2.404,2.069,3.718,2.881C57.993,66.228,58.228,64.683,58.228,63.068z" fill="#f4b41a" style=""></path><path d="M43.362,67.733c1.313-0.812,2.574-1.741,3.715-2.881c0.12-0.117,0.199-0.262,0.312-0.384   c-0.581-0.868-1.008-1.798-1.471-2.719c-1.008,0.336-2.038,0.624-3.1,0.834c-0.002,0.165-0.048,0.318-0.048,0.484   C42.771,64.683,43.006,66.228,43.362,67.733z" fill="#f4b41a" style=""></path><path d="M36.148,53.922c-1.139,1.14-2.068,2.4-2.88,3.717c1.503,0.355,3.051,0.59,4.663,0.59c0.166,0,0.318-0.044,0.484-0.048   c0.209-1.06,0.495-2.094,0.833-3.102c-0.918-0.463-1.848-0.886-2.716-1.471C36.411,53.726,36.269,53.805,36.148,53.922z" fill="#f4b41a" style=""></path><path d="M38.415,42.821c-0.166-0.006-0.319-0.05-0.484-0.05c-1.612,0-3.159,0.236-4.663,0.591c0.812,1.318,1.739,2.578,2.88,3.717   c0.12,0.118,0.262,0.196,0.384,0.314c0.868-0.583,1.797-1.008,2.716-1.471C38.91,44.916,38.625,43.881,38.415,42.821z" fill="#f4b41a" style=""></path><path d="M42.771,37.934c0,0.166,0.046,0.318,0.048,0.484c1.062,0.21,2.092,0.498,3.1,0.834c0.462-0.921,0.89-1.851,1.471-2.719   c-0.113-0.123-0.192-0.267-0.312-0.385c-1.141-1.139-2.402-2.066-3.715-2.879C43.006,34.774,42.771,36.319,42.771,37.934z" fill="#f4b41a" style=""></path><path d="M57.635,33.27c-1.314,0.812-2.575,1.74-3.718,2.879c-0.118,0.118-0.195,0.262-0.309,0.385   c0.579,0.868,1.007,1.798,1.469,2.719c1.008-0.336,2.038-0.624,3.099-0.834c0.004-0.166,0.052-0.318,0.052-0.484   C58.228,36.319,57.993,34.774,57.635,33.27z" fill="#f4b41a" style=""></path><path d="M63.063,42.771c-0.166,0-0.314,0.044-0.48,0.05c-0.209,1.06-0.498,2.095-0.838,3.102c0.921,0.463,1.851,0.888,2.719,1.471   c0.122-0.118,0.266-0.196,0.384-0.314c1.139-1.139,2.067-2.398,2.883-3.717C66.226,43.008,64.678,42.771,63.063,42.771z" fill="#f4b41a" style=""></path><path d="M48.074,49.493c-0.035,0.676-0.035,1.339,0,2.012c0.452,0.502,0.921,0.969,1.42,1.423c0.671,0.034,1.335,0.034,2.007,0   c0.5-0.454,0.972-0.926,1.423-1.423c0.035-0.673,0.033-1.336,0-2.008c-0.451-0.502-0.921-0.969-1.42-1.423   c-0.673-0.035-1.34-0.035-2.012,0C48.995,48.528,48.524,48.995,48.074,49.493z" fill="#f4b41a" style=""></path><path d="M64.464,53.608c-0.868,0.585-1.798,1.008-2.719,1.471c0.34,1.008,0.628,2.042,0.838,3.102   c0.166,0.004,0.314,0.048,0.48,0.048c1.615,0,3.163-0.234,4.668-0.59c-0.816-1.316-1.745-2.577-2.883-3.717   C64.73,53.805,64.586,53.726,64.464,53.608z" fill="#f4b41a" style=""></path><path d="M72.271,55.926c2.583-1.327,4.827-3.173,6.615-5.425c-1.788-2.252-4.031-4.098-6.615-5.425   c-1.091,1.929-2.357,3.784-3.998,5.425C69.914,52.142,71.179,53.996,72.271,55.926z" fill="#f4b41a" style=""></path><path d="M62.138,31.245c0.585,2.133,0.925,4.367,0.925,6.688c2.322,0,4.555,0.341,6.689,0.93c0.868-2.745,1.143-5.603,0.82-8.436   C67.74,30.104,64.879,30.375,62.138,31.245z" fill="#f4b41a" style=""></path><path d="M50.498,22.11c-2.253,1.794-4.099,4.033-5.424,6.616c1.927,1.096,3.782,2.361,5.424,4.002   c1.644-1.641,3.498-2.906,5.426-4.002C54.597,26.144,52.752,23.904,50.498,22.11z" fill="#f4b41a" style=""></path><path d="M37.931,37.934c0-2.321,0.34-4.556,0.927-6.688c-2.74-0.87-5.601-1.141-8.432-0.817c-0.323,2.833-0.05,5.69,0.817,8.436   C33.377,38.274,35.612,37.934,37.931,37.934z" fill="#f4b41a" style=""></path><path d="M22.108,50.501c1.794,2.252,4.034,4.098,6.618,5.425c1.091-1.93,2.356-3.784,3.999-5.425   c-1.643-1.641-2.908-3.496-4.001-5.425C26.143,46.403,23.902,48.249,22.108,50.501z" fill="#f4b41a" style=""></path><path d="M38.858,69.757c-0.587-2.133-0.927-4.367-0.927-6.688c-2.319,0-4.553-0.341-6.688-0.93   c-0.868,2.745-1.14,5.604-0.817,8.436C33.257,70.896,36.118,70.627,38.858,69.757z" fill="#f4b41a" style=""></path><path d="M50.498,78.891c2.255-1.793,4.1-4.032,5.426-6.616c-1.929-1.095-3.782-2.36-5.426-4c-1.642,1.64-3.497,2.905-5.424,4   C46.401,74.858,48.245,77.098,50.498,78.891z" fill="#f4b41a" style=""></path><path d="M63.063,63.068c0,2.321-0.34,4.556-0.925,6.688c2.741,0.87,5.602,1.139,8.435,0.817c0.323-2.832,0.048-5.695-0.82-8.436   C67.618,62.728,65.385,63.068,63.063,63.068z" fill="#f4b41a" style=""></path><path d="M87.425,44.026c-0.571,2.304-1.457,4.476-2.614,6.475c1.157,1.999,2.043,4.177,2.614,6.475   C88.844,52.771,88.844,48.231,87.425,44.026z" fill="#f4b41a" style=""></path><path d="M81.233,29.05c-1.981-4.041-5.244-7.301-9.286-9.282c1.249,2.063,2.147,4.268,2.745,6.541   C76.966,26.907,79.165,27.802,81.233,29.05z" fill="#f4b41a" style=""></path><path d="M56.971,13.576c-4.204-1.418-8.742-1.418-12.947,0c2.3,0.571,4.473,1.453,6.473,2.614   C52.5,15.029,54.671,14.147,56.971,13.576z" fill="#f4b41a" style=""></path><path d="M29.047,19.768c-4.042,1.981-7.301,5.241-9.284,9.282c2.066-1.248,4.268-2.143,6.541-2.741   C26.904,24.035,27.798,21.831,29.047,19.768z" fill="#f4b41a" style=""></path><path d="M13.571,56.973c0.574-2.3,1.458-4.473,2.616-6.472c-1.159-1.999-2.04-4.171-2.616-6.472   C12.158,48.231,12.158,52.771,13.571,56.973z" fill="#f4b41a" style=""></path><path d="M19.765,71.952c1.981,4.041,5.24,7.297,9.279,9.282c-1.248-2.068-2.141-4.269-2.741-6.542   C24.031,74.095,21.829,73.2,19.765,71.952z" fill="#f4b41a" style=""></path><path d="M44.024,87.426c4.205,1.418,8.746,1.418,12.947,0c-2.3-0.572-4.472-1.453-6.474-2.614   C48.498,85.973,46.324,86.854,44.024,87.426z" fill="#f4b41a" style=""></path><path d="M71.952,81.234c4.037-1.985,7.3-5.241,9.281-9.282c-2.068,1.248-4.267,2.143-6.541,2.74   C74.095,76.966,73.2,79.166,71.952,81.234z" fill="#f4b41a" style=""></path></g><desc>Created with Snap</desc><defs></defs></g><g><g transform="matrix(0.5,0,0,-0.5,0,0)"><path d="M650 1Q650 -137 627 -229Q605 -321 565 -377Q526 -433 472 -457Q419 -480 358 -480Q322 -480 280 -466Q239 -451 203 -419Q168 -386 144 -334Q121 -282 121 -208Q121 -194 122 -180Q124 -166 126 -150L355 -100L356 -105Q308 -134 285 -172Q263 -210 263 -251Q263 -270 268 -291Q273 -311 284 -328Q295 -345 312 -356Q329 -367 354 -367Q372 -367 389 -364Q407 -361 423 -349Q439 -337 452 -312Q465 -286 474 -242Q484 -197 489 -129Q495 -61 495 36Q423 -17 355 -17Q291 -17 237 15Q183 48 144 110Q105 172 83 261Q62 350 62 463Q62 577 85 673Q108 770 154 840Q201 911 270 950Q340 990 433 990Q462 990 505 983Q548 977 593 975L770 975L770 970Q713 951 687 906Q661 862 661 802Q661 749 660 681Q659 613 658 538Q657 463 655 386Q654 309 653 238Q652 167 651 105Q650 44 650 1ZM496 135L497 351Q498 481 494 619Q491 758 485 887Q473 892 460 895Q448 899 440 899Q389 899 347 870Q305 842 275 787Q245 732 228 650Q212 569 212 463Q212 79 381 79Q404 79 433 88Q463 98 496 121L496 135ZM953 517Q953 610 952 675Q952 740 948 783Q944 827 935 852Q927 877 910 889Q894 902 869 905Q844 908 808 908L808 913L1099 993Q1088 884 1087 752Q1087 621 1087 480Q1087 424 1087 386Q1087 348 1087 314Q1088 280 1090 242Q1092 205 1096 149Q1100 95 1124 58Q1148 22 1199 5L1199 0L838 0L838 5Q889 22 911 61Q933 100 937 153Q939 199 941 233Q944 268 945 296Q947 324 948 348Q950 372 951 397Q952 422 952 450Q953 479 953 517ZM914 1235Q914 1273 940 1299Q966 1326 1004 1326Q1042 1326 1068 1299Q1095 1273 1095 1235Q1095 1197 1068 1171Q1042 1145 1004 1145Q966 1145 940 1171Q914 1197 914 1235ZM1485 968L1555 968Q1610 968 1648 969Q1687 971 1712 973Q1741 975 1759 978L1719 848Q1708 859 1687 869Q1669 877 1637 884Q1605 891 1554 891L1482 891Q1481 856 1481 819Q1481 783 1481 745Q1481 658 1481 589Q1482 521 1482 460Q1483 400 1483 340Q1484 281 1484 211Q1484 141 1507 111Q1530 81 1559 81Q1575 81 1591 91Q1607 102 1620 121Q1633 141 1641 167Q1649 194 1649 226Q1649 252 1643 269L1646 271L1773 56Q1708 11 1652 -9Q1597 -28 1549 -28Q1500 -28 1461 -4Q1423 21 1396 61Q1370 101 1356 152Q1342 204 1342 258Q1342 319 1343 365Q1344 412 1344 453Q1345 494 1346 533Q1347 573 1347 621Q1347 709 1347 776Q1347 844 1346 896Q1317 898 1298 900Q1279 902 1268 904Q1255 906 1247 908L1247 968L1345 968Q1343 1026 1340 1058Q1337 1091 1331 1107Q1325 1124 1315 1128Q1306 1132 1292 1132L1292 1137L1523 1247Q1506 1182 1497 1112Q1489 1043 1485 968ZM2046 88Q2075 88 2100 100Q2125 113 2143 134Q2161 155 2171 181Q2181 207 2181 234Q2181 308 2155 374Q2129 440 2090 502Q2051 565 2005 627Q1960 689 1921 753Q1882 818 1856 888Q1830 958 1830 1038Q1830 1095 1851 1147Q1873 1199 1913 1239Q1953 1279 2010 1302Q2068 1326 2141 1326Q2198 1326 2260 1293Q2322 1261 2383 1200L2242 971L2238 974Q2248 1014 2248 1051Q2248 1092 2236 1123Q2225 1155 2207 1176Q2190 1197 2169 1208Q2148 1219 2128 1219Q2096 1219 2069 1207Q2042 1196 2022 1176Q2003 1157 1992 1130Q1981 1103 1981 1073Q1981 1011 2008 945Q2035 880 2075 813Q2116 746 2163 677Q2210 608 2250 539Q2291 470 2318 401Q2345 333 2345 266Q2345 208 2324 156Q2304 105 2264 66Q2225 27 2168 4Q2111 -18 2038 -18Q1981 -18 1919 14Q1857 47 1796 108L1937 307L1941 304Q1933 286 1930 268Q1927 251 1927 234Q1927 203 1937 176Q1948 149 1964 129Q1981 110 2002 99Q2024 88 2046 88ZM3149 592Q3149 527 3149 472Q3149 417 3150 364Q3151 311 3153 257Q3155 203 3158 139Q3162 89 3184 54Q3206 20 3251 5L3251 0L2929 0L2929 5Q2970 21 2988 57Q3006 94 3008 143Q3014 312 3014 409Q3014 515 3011 603Q3008 691 2994 753Q2981 816 2953 850Q2925 885 2875 885Q2837 885 2802 866Q2768 847 2742 812Q2716 778 2700 730Q2685 682 2685 624L2685 534Q2685 434 2687 336Q2689 238 2694 139Q2697 89 2716 54Q2736 20 2777 5L2777 0L2442 0L2442 5Q2493 21 2515 57Q2537 94 2541 143Q2542 307 2547 447Q2552 588 2552 721Q2552 849 2551 938Q2551 1028 2547 1088Q2543 1148 2534 1183Q2526 1218 2509 1235Q2493 1253 2468 1257Q2443 1262 2407 1262L2407 1267L2698 1347Q2694 1307 2692 1254Q2690 1201 2689 1140Q2688 1079 2688 1011Q2688 944 2688 876Q2709 912 2734 934Q2760 957 2786 969Q2813 982 2838 987Q2864 992 2886 992Q2947 992 2995 966Q3044 940 3078 889Q3112 839 3130 764Q3149 690 3149 592ZM3476 482Q3476 281 3516 179Q3556 77 3628 77Q3701 77 3737 179Q3774 281 3774 482Q3774 683 3737 784Q3701 885 3628 885Q3556 885 3516 784Q3476 683 3476 482ZM3326 482Q3326 605 3349 700Q3373 795 3413 860Q3454 925 3509 958Q3564 992 3628 992Q3689 992 3743 958Q3797 925 3837 860Q3877 795 3900 700Q3924 605 3924 482Q3924 359 3900 264Q3877 169 3837 104Q3797 39 3743 5Q3689 -29 3628 -29Q3564 -29 3509 5Q3454 39 3413 104Q3373 169 3349 264Q3326 359 3326 482ZM4147 0L4148 4L4160 9Q4191 23 4204 50Q4217 78 4215 114Q4206 199 4190 275Q4174 352 4157 432Q4139 525 4117 622Q4096 720 4068 832Q4057 877 4032 911Q4008 945 3962 959L3961 963L4276 963L4277 959Q4236 945 4220 913Q4205 881 4210 836Q4224 721 4246 605Q4268 490 4288 373Q4296 324 4305 268Q4315 213 4325 151Q4335 212 4344 268Q4354 324 4362 373Q4382 490 4398 605Q4415 721 4429 836Q4434 881 4418 913Q4403 945 4362 959L4363 963L4683 963L4683 959Q4663 952 4646 941Q4624 924 4616 897Q4608 870 4612 836Q4626 721 4648 605Q4670 490 4690 373Q4698 324 4707 268Q4717 213 4727 151Q4737 212 4746 268Q4756 324 4764 373Q4784 490 4800 605Q4817 721 4831 836Q4836 881 4820 913Q4805 945 4764 959L4765 963L5085 963L5085 959Q5038 944 5014 910Q4990 877 4979 832Q4951 720 4929 622Q4907 525 4890 432Q4872 352 4856 275Q4840 199 4831 114Q4828 78 4841 50Q4854 23 4885 9L4899 4L4900 0L4549 0L4550 4L4562 9Q4593 23 4606 50Q4619 78 4617 114Q4608 217 4592 307Q4576 398 4559 492Q4551 548 4542 607Q4533 666 4523 725Q4513 666 4504 607Q4496 548 4488 492Q4470 398 4454 307Q4438 217 4429 114Q4426 78 4439 50Q4452 23 4483 9L4497 4L4498 0L4147 0Z" fill="#ffffff" style=""></path></g></g><g transform="matrix(0.75,0,0,0.75,-9180.2525,1115.52)"><g transform="matrix(1.024,0,0,-1.024,0,0)"><path d="M278 165L403 516L482 516L251 -120Q242 -143 233 -159Q224 -174 211 -183Q198 -192 178 -196Q159 -200 131 -200L90 -200L90 -130L171 -130L210 -20L17 516L97 516L221 165L245 81L250 81L278 165ZM779 -12Q727 -12 684 7Q641 26 610 61Q580 97 563 146Q546 196 546 258Q546 319 563 369Q580 419 610 454Q641 490 684 509Q727 528 779 528Q831 528 873 509Q916 490 947 454Q978 419 995 369Q1012 319 1012 258Q1012 196 995 146Q978 97 947 61Q916 26 873 7Q831 -12 779 -12ZM779 59Q844 59 885 99Q926 139 926 221L926 295Q926 377 885 417Q844 457 779 457Q714 457 673 417Q632 377 632 295L632 221Q632 139 673 99Q714 59 779 59ZM1462 0L1462 84L1458 84Q1450 66 1438 48Q1427 31 1410 17Q1393 4 1369 -4Q1345 -12 1313 -12Q1233 -12 1186 39Q1139 91 1139 185L1139 516L1219 516L1219 199Q1219 60 1337 60Q1361 60 1383 66Q1406 72 1423 84Q1441 96 1451 114Q1462 133 1462 159L1462 516L1542 516L1542 0L1462 0ZM1792 0L1712 0L1712 516L1792 516L1792 421L1797 421Q1811 458 1847 487Q1883 516 1946 516L1977 516L1977 436L1930 436Q1865 436 1828 411Q1792 387 1792 350L1792 0ZM2315 0L2315 740L2395 740L2395 432L2399 432Q2418 476 2452 502Q2487 528 2545 528Q2625 528 2671 476Q2718 425 2718 331L2718 0L2638 0L2638 317Q2638 456 2521 456Q2497 456 2474 450Q2452 444 2434 432Q2416 420 2405 401Q2395 383 2395 358L2395 0L2315 0ZM3078 -12Q3026 -12 2983 7Q2940 26 2909 61Q2879 97 2862 146Q2845 196 2845 258Q2845 319 2862 369Q2879 419 2909 454Q2940 490 2983 509Q3026 528 3078 528Q3130 528 3172 509Q3215 490 3246 454Q3277 419 3294 369Q3311 319 3311 258Q3311 196 3294 146Q3277 97 3246 61Q3215 26 3172 7Q3130 -12 3078 -12ZM3078 59Q3143 59 3184 99Q3225 139 3225 221L3225 295Q3225 377 3184 417Q3143 457 3078 457Q3013 457 2972 417Q2931 377 2931 295L2931 221Q2931 139 2972 99Q3013 59 3078 59ZM3523 0L3443 0L3443 516L3523 516L3523 432L3527 432Q3536 452 3547 469Q3559 487 3575 500Q3592 513 3614 520Q3636 528 3666 528Q3717 528 3760 503Q3803 479 3824 423L3826 423Q3840 465 3878 496Q3917 528 3983 528Q4062 528 4106 476Q4151 425 4151 331L4151 0L4071 0L4071 317Q4071 386 4044 421Q4017 456 3958 456Q3934 456 3912 450Q3891 444 3874 432Q3857 420 3847 401Q3837 383 3837 358L3837 0L3757 0L3757 317Q3757 386 3730 421Q3703 456 3646 456Q3622 456 3600 450Q3578 444 3561 432Q3544 420 3533 401Q3523 383 3523 358L3523 0ZM4510 -12Q4457 -12 4414 7Q4372 26 4341 61Q4311 97 4294 146Q4278 196 4278 258Q4278 319 4294 369Q4311 419 4341 454Q4372 490 4414 509Q4457 528 4510 528Q4562 528 4603 509Q4644 490 4673 456Q4702 423 4717 377Q4733 331 4733 276L4733 238L4362 238L4362 214Q4362 181 4372 152Q4383 124 4402 103Q4422 82 4450 70Q4479 58 4515 58Q4564 58 4600 81Q4637 104 4657 147L4714 106Q4689 53 4636 20Q4583 -12 4510 -12ZM4510 461Q4477 461 4450 449Q4423 438 4403 417Q4384 396 4373 367Q4362 339 4362 305L4362 298L4647 298L4647 309Q4647 378 4609 419Q4572 461 4510 461ZM5129 0L5129 446L5045 446L5045 516L5129 516L5129 620Q5129 674 5157 707Q5185 740 5242 740L5320 740L5320 670L5209 670L5209 516L5320 516L5320 446L5209 446L5209 0L5129 0ZM5620 -12Q5568 -12 5525 7Q5482 26 5451 61Q5421 97 5404 146Q5387 196 5387 258Q5387 319 5404 369Q5421 419 5451 454Q5482 490 5525 509Q5568 528 5620 528Q5672 528 5714 509Q5757 490 5788 454Q5819 419 5836 369Q5853 319 5853 258Q5853 196 5836 146Q5819 97 5788 61Q5757 26 5714 7Q5672 -12 5620 -12ZM5620 59Q5685 59 5726 99Q5767 139 5767 221L5767 295Q5767 377 5726 417Q5685 457 5620 457Q5555 457 5514 417Q5473 377 5473 295L5473 221Q5473 139 5514 99Q5555 59 5620 59ZM6065 0L5985 0L5985 516L6065 516L6065 421L6070 421Q6084 458 6120 487Q6156 516 6219 516L6250 516L6250 436L6203 436Q6138 436 6101 411Q6065 387 6065 350L6065 0ZM6744 0L6673 0Q6631 0 6609 23Q6588 47 6588 83L6588 740L6668 740L6668 70L6744 70L6744 0ZM7055 -12Q7003 -12 6960 7Q6917 26 6886 61Q6856 97 6839 146Q6822 196 6822 258Q6822 319 6839 369Q6856 419 6886 454Q6917 490 6960 509Q7003 528 7055 528Q7107 528 7149 509Q7192 490 7223 454Q7254 419 7271 369Q7288 319 7288 258Q7288 196 7271 146Q7254 97 7223 61Q7192 26 7149 7Q7107 -12 7055 -12ZM7055 59Q7120 59 7161 99Q7202 139 7202 221L7202 295Q7202 377 7161 417Q7120 457 7055 457Q6990 457 6949 417Q6908 377 6908 295L6908 221Q6908 139 6949 99Q6990 59 7055 59ZM7612 -12Q7558 -12 7515 7Q7472 26 7442 61Q7413 96 7397 146Q7382 196 7382 258Q7382 320 7397 370Q7413 420 7442 455Q7472 490 7515 509Q7558 528 7612 528Q7689 528 7735 494Q7782 461 7805 407L7738 373Q7724 413 7692 435Q7660 457 7612 457Q7576 457 7549 445Q7522 434 7504 413Q7486 393 7477 364Q7468 336 7468 302L7468 214Q7468 146 7504 102Q7541 59 7612 59Q7709 59 7752 149L7810 110Q7785 54 7735 21Q7686 -12 7612 -12ZM8343 0L8298 0Q8253 0 8233 24Q8214 48 8209 84L8204 84Q8187 36 8148 12Q8109 -12 8055 -12Q7973 -12 7927 30Q7882 72 7882 144Q7882 217 7935 256Q7989 295 8102 295L8204 295L8204 346Q8204 401 8174 430Q8144 459 8082 459Q8035 459 8003 438Q7972 417 7951 382L7903 427Q7924 469 7970 498Q8016 528 8086 528Q8180 528 8232 482Q8284 436 8284 354L8284 70L8343 70L8343 0ZM8068 56Q8098 56 8123 63Q8148 70 8166 83Q8184 96 8194 113Q8204 130 8204 150L8204 235L8098 235Q8029 235 7997 215Q7966 195 7966 157L7966 136Q7966 98 7993 77Q8021 56 8068 56ZM8613 0L8542 0Q8500 0 8478 23Q8457 47 8457 83L8457 740L8537 740L8537 70L8613 70L8613 0ZM9159 -12Q9106 -12 9063 7Q9021 26 8990 61Q8960 97 8943 146Q8927 196 8927 258Q8927 319 8943 369Q8960 419 8990 454Q9021 490 9063 509Q9106 528 9159 528Q9211 528 9252 509Q9293 490 9322 456Q9351 423 9366 377Q9382 331 9382 276L9382 238L9011 238L9011 214Q9011 181 9021 152Q9032 124 9051 103Q9071 82 9099 70Q9128 58 9164 58Q9213 58 9249 81Q9286 104 9306 147L9363 106Q9338 53 9285 20Q9232 -12 9159 -12ZM9159 461Q9126 461 9099 449Q9072 438 9052 417Q9033 396 9022 367Q9011 339 9011 305L9011 298L9296 298L9296 309Q9296 378 9258 419Q9221 461 9159 461ZM9594 0L9514 0L9514 516L9594 516L9594 432L9598 432Q9617 476 9651 502Q9686 528 9744 528Q9824 528 9870 476Q9917 425 9917 331L9917 0L9837 0L9837 317Q9837 456 9720 456Q9696 456 9673 450Q9651 444 9633 432Q9615 420 9604 401Q9594 383 9594 358L9594 0ZM10296 0L10196 0Q10154 0 10132 23Q10111 47 10111 85L10111 446L10026 446L10026 516L10074 516Q10100 516 10109 526Q10119 537 10119 563L10119 659L10191 659L10191 516L10304 516L10304 446L10191 446L10191 70L10296 70L10296 0ZM10627 -12Q10574 -12 10531 7Q10489 26 10458 61Q10428 97 10411 146Q10395 196 10395 258Q10395 319 10411 369Q10428 419 10458 454Q10489 490 10531 509Q10574 528 10627 528Q10679 528 10720 509Q10761 490 10790 456Q10819 423 10834 377Q10850 331 10850 276L10850 238L10479 238L10479 214Q10479 181 10489 152Q10500 124 10519 103Q10539 82 10567 70Q10596 58 10632 58Q10681 58 10717 81Q10754 104 10774 147L10831 106Q10806 53 10753 20Q10700 -12 10627 -12ZM10627 461Q10594 461 10567 449Q10540 438 10520 417Q10501 396 10490 367Q10479 339 10479 305L10479 298L10764 298L10764 309Q10764 378 10726 419Q10689 461 10627 461ZM11062 0L10982 0L10982 516L11062 516L11062 421L11067 421Q11081 458 11117 487Q11153 516 11216 516L11247 516L11247 436L11200 436Q11135 436 11098 411Q11062 387 11062 350L11062 0ZM11563 0L11463 0Q11421 0 11399 23Q11378 47 11378 85L11378 446L11293 446L11293 516L11341 516Q11367 516 11376 526Q11386 537 11386 563L11386 659L11458 659L11458 516L11571 516L11571 446L11458 446L11458 70L11563 70L11563 0ZM12120 0L12075 0Q12030 0 12010 24Q11991 48 11986 84L11981 84Q11964 36 11925 12Q11886 -12 11832 -12Q11750 -12 11704 30Q11659 72 11659 144Q11659 217 11712 256Q11766 295 11879 295L11981 295L11981 346Q11981 401 11951 430Q11921 459 11859 459Q11812 459 11780 438Q11749 417 11728 382L11680 427Q11701 469 11747 498Q11793 528 11863 528Q11957 528 12009 482Q12061 436 12061 354L12061 70L12120 70L12120 0ZM11845 56Q11875 56 11900 63Q11925 70 11943 83Q11961 96 11971 113Q11981 130 11981 150L11981 235L11875 235Q11806 235 11774 215Q11743 195 11743 157L11743 136Q11743 98 11770 77Q11798 56 11845 56ZM12274 637Q12248 637 12236 649Q12225 662 12225 682L12225 695Q12225 715 12236 727Q12248 740 12274 740Q12300 740 12311 727Q12323 715 12323 695L12323 682Q12323 662 12311 649Q12300 637 12274 637ZM12234 0L12234 516L12314 516L12314 0L12234 0ZM12564 0L12484 0L12484 516L12564 516L12564 432L12568 432Q12587 476 12621 502Q12656 528 12714 528Q12794 528 12840 476Q12887 425 12887 331L12887 0L12807 0L12807 317Q12807 456 12690 456Q12666 456 12643 450Q12621 444 12603 432Q12585 420 12574 401Q12564 383 12564 358L12564 0ZM13132 0L13052 0L13052 516L13132 516L13132 432L13136 432Q13145 452 13156 469Q13168 487 13184 500Q13201 513 13223 520Q13245 528 13275 528Q13326 528 13369 503Q13412 479 13433 423L13435 423Q13449 465 13487 496Q13526 528 13592 528Q13671 528 13715 476Q13760 425 13760 331L13760 0L13680 0L13680 317Q13680 386 13653 421Q13626 456 13567 456Q13543 456 13521 450Q13500 444 13483 432Q13466 420 13456 401Q13446 383 13446 358L13446 0L13366 0L13366 317Q13366 386 13339 421Q13312 456 13255 456Q13231 456 13209 450Q13187 444 13170 432Q13153 420 13142 401Q13132 383 13132 358L13132 0ZM14119 -12Q14066 -12 14023 7Q13981 26 13950 61Q13920 97 13903 146Q13887 196 13887 258Q13887 319 13903 369Q13920 419 13950 454Q13981 490 14023 509Q14066 528 14119 528Q14171 528 14212 509Q14253 490 14282 456Q14311 423 14326 377Q14342 331 14342 276L14342 238L13971 238L13971 214Q13971 181 13981 152Q13992 124 14011 103Q14031 82 14059 70Q14088 58 14124 58Q14173 58 14209 81Q14246 104 14266 147L14323 106Q14298 53 14245 20Q14192 -12 14119 -12ZM14119 461Q14086 461 14059 449Q14032 438 14012 417Q13993 396 13982 367Q13971 339 13971 305L13971 298L14256 298L14256 309Q14256 378 14218 419Q14181 461 14119 461ZM14554 0L14474 0L14474 516L14554 516L14554 432L14558 432Q14577 476 14611 502Q14646 528 14704 528Q14784 528 14830 476Q14877 425 14877 331L14877 0L14797 0L14797 317Q14797 456 14680 456Q14656 456 14633 450Q14611 444 14593 432Q14575 420 14564 401Q14554 383 14554 358L14554 0ZM15256 0L15156 0Q15114 0 15092 23Q15071 47 15071 85L15071 446L14986 446L14986 516L15034 516Q15060 516 15069 526Q15079 537 15079 563L15079 659L15151 659L15151 516L15264 516L15264 446L15151 446L15151 70L15256 70L15256 0Z" fill="#ffffff" style=""></path></g></g></g></svg>